# xmcd CD database file
#
# Track frame offsets:
#	150
#	20044
#	40089
#	53555
#	71684
#	84840
#	99212
#	112819
#	127226
#	143281
#	163461
#	179010
#	192911
#	205129
#	225216
#	244931
#
# Disc length: 3440 seconds
#
# Revision: 0
# Processed by: cddbd v1.5.2PL0 Copyright (c) Steve Scherf et al.
# Submitted via: CDex 1.70beta2
#
DISCID=d10d6e10
DTITLE=Kuschelweihnacht - Kuschelweihnacht CD1
DYEAR=2011
DGENRE=Weihnachten
TTITLE0=Last Christmas/Santa Claus&His Rrockin' Snowmen
TTITLE1=Mistletoe And Wine/Leonardo
TTITLE2=Winter Wonderland/Louis Armstrong
TTITLE3=Driving Home for Christmas/Santa Claus&His Rrockin' Snowmen
TTITLE4=Jingle Bells (Instrumental)/Richard de Cluny
TTITLE5=Adeste fideles/Bing Crosby
TTITLE6=The Second Star to the Right/Doris Day
TTITLE7=I I'll be Home for Chrismas/Frank Sinatra
TTITLE8=Do You hear what I hear?/Crystal Angels
TTITLE9=Snow falls softly/Richard de Cluny
TTITLE10=The Christmas Son/Frank Sinatra
TTITLE11=White Christmas/Bing Crosby
TTITLE12=Ol' Santa Claus/Dinah Washington
TTITLE13=Have Yourself a merry little Christmas/Chrystal Angels
TTITLE14=Silent Night (Instrumental)/Richard Cluny
TTITLE15=O Holy Night/Nat King Cole
EXTD=YEAR: 2011
EXTT0=
EXTT1=
EXTT2=
EXTT3=
EXTT4=
EXTT5=
EXTT6=
EXTT7=
EXTT8=
EXTT9=
EXTT10=
EXTT11=
EXTT12=
EXTT13=
EXTT14=
EXTT15=
PLAYORDER=
